<svg width="800" height="800" viewBox="0 0 800 800" fill="none" xmlns="http://www.w3.org/2000/svg">
<g clip-path="url(#clip0_1029_2)">
<path d="M361.745 797.758C201.266 779.782 72.6535 651.496 54.3503 491.017C30.3274 281.184 193.422 102.565 397.861 100.277V6.14646C397.861 0.916983 404.398 -1.86117 408.811 1.40725L602.628 143.747C605.896 146.198 605.896 150.938 602.628 153.389L408.811 295.729C404.398 298.997 397.861 296.055 397.861 290.989V197.022C254.214 199.31 139.166 321.549 148.971 467.648C157.306 593.318 259.771 695.293 385.441 703.301C518.63 711.799 631.88 616.688 652.145 490.853C655.903 467.484 676.331 450.488 699.864 450.488C729.116 450.488 751.995 476.472 747.419 505.398C718.984 684.671 553.438 819.166 361.745 797.758Z" fill="black"/>
</g>
<defs>
<clipPath id="clip0_1029_2">
<rect width="800" height="800" fill="white" transform="matrix(-1 0 0 1 800 0)"/>
</clipPath>
</defs>
</svg>
